# xmcd CD database file
#
# Track frame offsets:
#	150
#	21402
#	40330
#	53313
#	68329
#	88821
#	104948
#	120346
#	137171
#	152976
#	170745
#
# Disc length: 2455 seconds
#
# Revision: 0
# Processed by: cddbd v1.5.2PL0 Copyright (c) Steve Scherf et al.
# Submitted via: CDex 1.51
#
DISCID=9409950b
DTITLE=Lunchboxx - Wide As Tall
DYEAR=2000
DGENRE=Blues
TTITLE0=Wide As Tall
TTITLE1=It's Friday Night
TTITLE2=Stay Right Here With Me
TTITLE3=Wish You Didn't Hate Yourself
TTITLE4=That Noise
TTITLE5=Gone At Last
TTITLE6=Wandering Eye
TTITLE7=Trouble So Hard
TTITLE8=Sam And Ginny
TTITLE9=Illinois Blues
TTITLE10=South Nashville Blues
EXTD=YEAR: 2000
EXTT0=
EXTT1=
EXTT2=
EXTT3=
EXTT4=
EXTT5=
EXTT6=
EXTT7=
EXTT8=
EXTT9=
EXTT10=
PLAYORDER=
